{"glyphs":{"0":{"ha":1349,"x_min":28,"x_max":1321,"o":"m 1321 876 l 1139 225 l 754 -3 l 263 46 l 28 688 l 138 1293 l 657 1460 l 1022 1360 l 1321 876 m 508 365 l 774 322 l 911 738 l 904 958 l 699 1208 l 428 929 l 508 365 z "},"1":{"ha":618,"x_min":14,"x_max":590,"o":"m 590 44 l 168 -3 l 228 1092 l 42 1038 l 14 1346 l 310 1389 l 571 1296 l 590 44 z "},"2":{"ha":1165,"x_min":21,"x_max":1138,"o":"m 1049 789 l 461 271 l 1138 375 l 1083 28 l 204 -3 l 21 225 l 706 967 l 489 1108 l 169 832 l 61 1165 l 503 1429 l 992 1292 l 1049 789 z "},"3":{"ha":1143,"x_min":21,"x_max":1115,"o":"m 1050 997 l 799 728 l 1090 576 l 1115 226 l 763 -43 l 93 72 l 168 397 l 563 261 l 719 494 l 199 600 l 199 764 l 578 861 l 718 1056 l 490 1108 l 129 943 l 21 1276 l 504 1429 l 993 1292 l 1050 997 z "},"4":{"ha":1007,"x_min":21,"x_max":979,"o":"m 979 44 l 557 -3 l 579 403 l 21 488 l 43 1336 l 465 1383 l 382 675 l 593 664 l 631 1383 l 960 1421 l 979 44 z "},"5":{"ha":1064,"x_min":21,"x_max":1043,"o":"m 378 1129 l 410 811 l 753 838 l 1018 576 l 1043 226 l 690 -43 l 21 72 l 96 397 l 490 261 l 647 494 l 126 600 l 96 1347 l 410 1375 q 488 1384 456 1379 q 567 1389 521 1389 q 763 1383 665 1389 q 960 1375 861 1378 l 971 1082 l 378 1129 z "},"6":{"ha":1128,"x_min":21,"x_max":1107,"o":"m 75 1221 l 293 1411 l 1010 1376 l 1035 1054 l 449 1136 l 403 772 l 443 811 l 842 838 l 1107 576 l 1083 225 l 589 -43 l 21 175 l 75 1221 m 551 261 l 736 494 l 583 624 l 383 613 l 351 357 l 551 261 z "},"7":{"ha":911,"x_min":14,"x_max":890,"o":"m 618 44 l 168 -3 l 519 1092 l 42 1065 l 14 1374 q 308 1383 161 1378 q 601 1389 454 1389 q 622 1383 601 1389 q 672 1367 642 1376 q 739 1345 703 1357 q 807 1323 775 1333 q 862 1305 839 1313 q 890 1296 885 1297 l 618 44 z "},"8":{"ha":1290,"x_min":21,"x_max":1269,"o":"m 1178 972 l 943 781 l 1178 650 l 1269 304 l 968 0 l 272 22 l 38 296 l 63 694 l 272 781 l 21 1039 l 163 1321 l 569 1435 l 1086 1333 l 1178 972 m 464 907 l 729 864 l 825 988 l 818 1125 l 654 1181 l 453 1124 l 464 907 m 624 667 l 432 611 l 425 404 l 549 281 l 828 324 l 839 610 l 624 667 z "},"9":{"ha":1128,"x_min":21,"x_max":1107,"o":"m 38 342 l 679 260 l 715 549 l 328 471 l 21 819 l 44 1171 l 539 1439 l 1063 1238 l 1107 226 l 835 -15 l 63 19 l 38 342 m 532 694 l 740 750 l 776 1039 l 454 1143 l 390 831 l 532 694 z "},"\u0000":{"ha":0,"x_min":0,"x_max":0,"o":""},"\r":{"ha":347,"x_min":0,"x_max":0,"o":""}," ":{"ha":361,"x_min":0,"x_max":0,"o":""},"!":{"ha":517,"x_min":33,"x_max":488,"o":"m 33 1431 l 488 1431 l 390 501 l 117 501 l 33 1431 m 68 350 l 428 347 l 433 1 l 74 4 l 68 350 z "},"\"":{"ha":683,"x_min":28,"x_max":656,"o":"m 315 1471 l 275 851 l 57 850 l 28 1471 l 315 1471 m 656 1471 l 615 851 l 397 850 l 368 1471 l 656 1471 z "},"#":{"ha":1304,"x_min":28,"x_max":1276,"o":"m 172 240 l 28 243 l 42 475 l 206 476 l 268 900 l 83 896 l 111 1169 l 307 1167 l 347 1443 l 601 1403 l 569 1164 l 819 1161 l 861 1443 l 1115 1403 l 1082 1158 l 1263 1156 l 1276 924 l 1050 918 l 992 486 l 1193 489 l 1221 215 l 956 221 l 911 -104 l 635 -108 l 683 228 l 443 233 l 397 -104 l 121 -108 l 172 240 m 721 483 l 783 913 l 535 907 l 476 481 l 721 483 z "},"$":{"ha":1222,"x_min":28,"x_max":1194,"o":"m 497 -54 l 488 -56 l 28 71 l 117 446 q 155 430 125 443 q 226 399 185 417 q 314 363 268 382 q 399 327 360 343 q 465 301 439 311 q 493 290 492 290 l 489 594 l 111 661 l 125 1213 l 499 1383 l 501 1583 l 804 1583 l 799 1383 l 1147 1332 l 1056 999 l 789 1069 l 783 850 l 1163 803 l 1183 496 q 1190 419 1186 451 q 1194 343 1194 388 q 1189 319 1194 342 q 1176 261 1183 296 q 1158 186 1168 226 q 1140 110 1149 146 q 1126 47 1132 74 q 1118 14 1119 19 l 794 -22 l 804 -347 l 501 -347 l 497 -54 m 490 886 l 493 1083 l 403 1083 l 358 903 l 490 886 m 825 258 l 906 343 l 846 532 l 779 544 l 788 263 l 825 258 z "},"%":{"ha":1897,"x_min":28,"x_max":1869,"o":"m 1269 1499 l 1510 1417 l 542 -201 l 251 -108 l 1269 1499 m 842 1100 l 728 739 l 486 611 l 176 638 l 28 996 l 97 1332 l 424 1425 l 653 1368 l 842 1100 m 331 815 l 497 792 l 585 1024 l 579 1146 l 450 1285 l 279 1129 l 331 815 m 1869 447 l 1756 86 l 1514 -42 l 1204 -15 l 1056 343 l 1125 679 l 1451 772 l 1681 715 l 1869 447 m 1358 163 l 1525 139 l 1613 371 l 1607 493 l 1478 632 l 1307 476 l 1358 163 z "},"&":{"ha":1239,"x_min":35,"x_max":1204,"o":"m 865 0 l 779 136 l 360 -69 l 35 83 l 74 742 l 324 828 l 139 1060 l 183 1389 l 674 1458 l 875 1231 l 806 969 l 656 800 q 664 786 660 793 q 674 772 668 779 l 844 565 l 1044 740 l 1201 479 l 1035 335 l 1204 129 l 865 0 m 629 1160 l 524 1258 l 411 1157 l 528 986 l 629 1160 m 625 379 l 467 629 l 331 556 l 350 210 l 625 379 z "},"'":{"ha":342,"x_min":28,"x_max":314,"o":"m 314 1471 l 275 851 l 57 850 l 28 1471 l 314 1471 z "},"(":{"ha":636,"x_min":28,"x_max":608,"o":"m 72 83 l 43 399 q 33 477 39 444 q 28 556 28 510 q 29 576 28 558 q 33 622 31 594 q 37 679 35 649 q 41 736 39 710 q 44 780 43 763 q 46 797 46 797 q 55 823 46 799 q 77 883 64 847 q 106 960 90 918 q 135 1037 122 1001 q 158 1096 149 1072 q 168 1121 168 1119 l 361 1389 l 608 1389 l 519 1111 q 497 1042 507 1071 q 475 972 486 1014 l 425 704 q 417 669 421 685 q 409 637 413 653 q 403 605 406 621 q 400 569 400 589 q 406 484 400 519 q 419 399 413 449 l 457 57 q 480 -11 467 17 q 507 -78 493 -39 l 608 -347 l 361 -347 l 72 83 z "},")":{"ha":636,"x_min":28,"x_max":608,"o":"m 28 -347 l 129 -78 q 157 -11 144 -39 q 179 57 169 17 l 217 399 q 230 484 224 449 q 236 569 236 519 q 233 605 236 589 q 227 637 231 621 q 219 669 224 653 q 211 704 215 685 l 161 972 q 140 1042 150 1014 q 117 1111 131 1071 l 28 1389 l 275 1389 l 468 1121 q 478 1096 469 1119 q 501 1037 488 1072 q 530 960 514 1001 q 559 883 546 918 q 581 823 572 847 q 590 797 590 799 q 592 780 590 797 q 595 736 593 763 q 599 679 597 710 q 603 622 601 649 q 607 576 606 594 q 608 556 608 558 q 603 477 608 510 q 593 399 599 444 l 564 83 l 275 -347 l 28 -347 z "},"*":{"ha":903,"x_min":28,"x_max":875,"o":"m 875 1217 l 643 1096 l 875 960 l 774 826 l 539 950 l 529 694 l 351 707 l 347 940 l 129 826 l 28 960 l 260 1096 l 28 1217 l 118 1404 l 340 1274 l 336 1494 l 558 1518 l 550 1267 l 785 1404 l 875 1217 z "},"+":{"ha":944,"x_min":28,"x_max":917,"o":"m 28 853 l 363 838 l 378 1161 l 596 1161 l 601 826 l 917 811 l 917 593 l 604 589 l 610 243 l 336 243 l 351 585 l 28 579 l 28 853 z "},",":{"ha":449,"x_min":28,"x_max":421,"o":"m 56 386 l 421 344 l 379 51 l 197 -262 l 67 -294 l 143 51 l 28 51 l 56 386 z "},"-":{"ha":653,"x_min":28,"x_max":625,"o":"m 28 853 l 625 839 l 625 593 l 28 579 l 28 853 z "},".":{"ha":474,"x_min":28,"x_max":446,"o":"m 28 332 l 382 390 l 446 50 l 92 -8 l 28 332 z "},"/":{"ha":925,"x_min":56,"x_max":897,"o":"m 643 1499 l 897 1417 l 332 -201 l 56 -108 l 643 1499 z "},":":{"ha":474,"x_min":28,"x_max":446,"o":"m 28 1179 l 382 1238 l 446 897 l 92 839 l 28 1179 m 28 332 l 382 390 l 446 50 l 92 -8 l 28 332 z "},";":{"ha":474,"x_min":28,"x_max":446,"o":"m 28 1179 l 382 1238 l 446 897 l 92 839 l 28 1179 m 56 386 l 421 344 l 379 51 l 197 -262 l 67 -294 l 143 51 l 28 51 l 56 386 z "},"<":{"ha":746,"x_min":28,"x_max":704,"o":"m 607 1211 l 704 967 l 235 717 l 704 475 l 649 175 l 28 606 l 28 822 l 607 1211 z "},"=":{"ha":965,"x_min":32,"x_max":906,"o":"m 60 961 l 892 947 l 906 715 l 32 688 l 60 961 m 32 340 l 46 572 l 878 586 l 906 313 l 32 340 z "},">":{"ha":746,"x_min":42,"x_max":718,"o":"m 718 606 l 97 175 l 42 475 l 511 717 l 42 967 l 139 1211 l 718 822 l 718 606 z "},"?":{"ha":1039,"x_min":28,"x_max":1011,"o":"m 1011 986 l 850 681 l 614 571 l 613 463 l 285 463 l 313 779 l 614 911 l 617 1178 l 414 1163 l 136 929 l 28 1318 l 428 1471 l 910 1407 l 1011 986 m 314 363 l 661 269 l 579 -67 l 232 26 l 314 363 z "},"@":{"ha":1601,"x_min":28,"x_max":1574,"o":"m 836 268 l 651 132 l 460 344 l 592 944 l 915 1090 l 1117 1014 l 1051 376 l 1131 347 l 1246 489 l 1251 1051 l 842 1221 l 474 1019 l 293 401 l 654 -67 l 1068 42 l 1107 -207 l 654 -329 l 140 31 l 28 460 l 140 1085 l 654 1475 l 1042 1472 l 1497 1165 l 1574 406 l 1274 71 l 825 197 l 836 268 m 879 563 l 922 844 l 779 814 l 700 393 l 879 563 z "},"A":{"ha":1494,"x_min":21,"x_max":1474,"o":"m 550 1383 q 613 1382 579 1382 q 679 1381 646 1382 q 745 1379 713 1381 q 806 1375 778 1378 q 918 1353 856 1368 q 1032 1328 981 1339 l 1474 86 l 1004 42 l 939 331 l 574 390 l 464 -14 l 21 128 l 550 1383 m 879 596 l 765 1103 l 632 608 l 879 596 z "},"B":{"ha":1264,"x_min":35,"x_max":1236,"o":"m 78 1388 q 331 1388 206 1388 q 585 1389 457 1389 q 617 1382 588 1389 q 693 1365 647 1375 q 792 1343 739 1356 q 892 1319 844 1331 q 975 1301 940 1308 q 1018 1290 1010 1293 l 1151 901 l 976 749 l 1236 561 l 1193 85 q 1156 76 1186 83 q 1085 60 1126 69 q 999 40 1044 50 q 914 20 953 29 q 849 6 875 11 q 819 0 822 0 l 478 0 q 438 1 456 0 q 404 3 421 1 q 369 6 388 4 q 331 10 351 8 l 35 28 l 78 1388 m 739 831 l 767 972 l 689 1088 l 442 1103 l 453 757 l 739 831 m 469 276 q 524 281 492 279 q 592 286 557 283 q 658 292 626 289 q 708 300 689 296 q 747 313 724 304 q 797 331 771 321 q 847 351 822 340 q 888 367 871 361 l 792 588 l 458 594 l 469 276 z "},"C":{"ha":1207,"x_min":35,"x_max":1179,"o":"m 735 1075 l 508 972 l 438 543 l 740 343 l 1042 508 l 1179 163 l 635 -62 l 56 232 l 35 1118 l 635 1389 l 1151 1332 l 1060 999 l 735 1075 z "},"D":{"ha":1293,"x_min":35,"x_max":1265,"o":"m 740 1389 l 1119 1178 l 1265 638 l 1049 114 q 1018 103 1043 113 q 958 81 993 93 q 884 54 924 68 q 811 28 844 40 q 756 8 778 15 q 733 0 733 0 l 114 0 q 106 30 113 6 q 91 88 100 54 q 72 159 82 121 q 54 229 63 197 q 40 283 46 261 q 35 304 35 304 q 36 401 35 357 q 40 485 38 444 q 44 569 42 526 q 49 665 47 613 l 78 1389 l 740 1389 m 454 315 l 660 329 l 872 535 l 844 893 l 615 1076 l 415 1071 l 454 315 z "},"E":{"ha":1038,"x_min":35,"x_max":1010,"o":"m 65 1375 l 999 1389 l 943 1056 l 439 1111 l 450 815 l 746 874 l 807 578 l 457 558 l 468 263 l 940 360 l 1010 -1 l 35 -43 l 65 1375 z "},"F":{"ha":1100,"x_min":21,"x_max":1072,"o":"m 46 368 q 38 421 42 397 q 30 467 33 444 q 24 514 26 490 q 21 567 21 538 q 26 640 21 607 q 40 703 32 672 q 56 767 47 735 q 74 839 65 800 l 181 1385 l 181 1389 l 1072 1374 l 1003 1013 l 563 1099 l 447 663 l 911 732 l 931 358 l 431 389 l 525 0 l 96 -28 l 46 368 z "},"G":{"ha":1454,"x_min":28,"x_max":1426,"o":"m 896 1064 q 812 1071 847 1067 q 728 1075 776 1075 q 693 1069 724 1075 q 625 1056 663 1063 q 555 1042 588 1049 q 514 1033 522 1035 l 467 471 l 732 265 l 1019 447 l 1010 565 l 697 538 l 657 881 l 1281 844 l 1426 404 l 1072 6 l 529 -28 l 76 246 l 28 1146 l 544 1403 l 1286 1360 l 1233 1040 l 896 1064 z "},"H":{"ha":1203,"x_min":35,"x_max":1168,"o":"m 65 -42 l 35 1375 l 478 1306 l 453 617 l 738 663 l 674 1375 l 1103 1375 l 1168 38 l 801 -42 l 761 406 l 444 389 l 432 38 l 65 -42 z "},"I":{"ha":513,"x_min":35,"x_max":478,"o":"m 478 28 l 35 -42 l 65 1375 l 432 1296 l 478 28 z "},"J":{"ha":953,"x_min":28,"x_max":925,"o":"m 925 1319 l 867 97 l 482 -25 l 28 125 l 83 538 l 496 303 l 443 1389 l 925 1319 z "},"K":{"ha":1286,"x_min":28,"x_max":1258,"o":"m 97 1389 l 440 1389 l 450 914 l 800 1389 l 1258 1349 l 719 693 l 1258 99 l 800 0 l 507 479 l 461 432 l 468 69 l 28 0 l 97 1389 z "},"L":{"ha":918,"x_min":35,"x_max":890,"o":"m 447 1347 l 410 308 l 867 431 l 890 0 l 35 42 l 49 1389 l 447 1347 z "},"M":{"ha":1914,"x_min":35,"x_max":1879,"o":"m 296 1390 l 829 1336 l 989 379 l 1257 1389 l 1681 1283 l 1879 83 l 1376 0 l 1354 903 l 1133 63 l 811 0 l 631 975 l 521 -14 l 35 15 l 296 1390 z "},"N":{"ha":1263,"x_min":35,"x_max":1228,"o":"m 851 324 l 788 1347 l 1182 1393 l 1228 42 l 721 -28 l 719 -29 l 719 -28 l 715 -28 l 718 -22 l 442 863 l 478 28 l 35 -42 l 65 1375 l 564 1347 l 851 324 z "},"O":{"ha":1599,"x_min":28,"x_max":1571,"o":"m 1571 876 l 1472 225 l 949 -3 l 346 46 l 28 618 l 207 1251 l 740 1460 l 1272 1332 l 1571 876 m 782 336 l 1126 586 l 1133 807 l 1024 1042 l 522 999 l 511 615 l 782 336 z "},"P":{"ha":1189,"x_min":28,"x_max":1161,"o":"m 28 1360 l 251 1388 q 308 1397 285 1392 q 364 1401 331 1401 q 418 1400 393 1401 q 466 1397 443 1399 q 514 1394 489 1396 q 568 1390 539 1392 l 976 1368 l 1161 1042 l 1117 731 l 482 372 l 517 67 l 78 13 l 28 1360 m 453 635 l 797 890 l 731 1101 l 397 1117 l 453 631 l 453 635 z "},"Q":{"ha":1561,"x_min":28,"x_max":1533,"o":"m 1533 876 l 1396 307 l 1271 181 l 1364 -96 l 1035 -265 l 911 -3 l 308 46 l 28 621 l 231 1249 l 703 1460 l 1235 1332 l 1533 876 m 457 447 l 732 358 l 582 614 l 813 764 l 1035 499 l 1089 792 l 861 1031 l 499 972 l 457 447 z "},"R":{"ha":1363,"x_min":28,"x_max":1335,"o":"m 86 1375 q 256 1383 171 1378 q 425 1389 340 1389 q 478 1386 454 1389 q 526 1379 503 1383 q 574 1370 550 1375 q 628 1361 599 1365 l 1032 1307 l 1246 972 l 1121 660 l 936 610 l 1335 110 l 903 8 l 503 565 l 815 844 l 765 1060 l 435 1103 l 471 -28 l 28 28 l 86 1375 z "},"S":{"ha":1222,"x_min":28,"x_max":1194,"o":"m 1056 999 q 1024 1007 1050 1000 q 964 1023 999 1014 q 890 1043 929 1032 q 817 1063 850 1054 q 761 1078 783 1072 q 739 1083 739 1083 l 569 1083 l 525 875 l 1065 817 l 1194 343 l 1021 14 l 488 -56 l 28 71 l 124 475 l 617 258 l 767 343 l 742 528 l 167 675 l 181 1213 l 571 1417 l 1147 1332 l 1056 999 z "},"T":{"ha":1058,"x_min":14,"x_max":1044,"o":"m 14 1403 l 1044 1361 l 989 1056 l 708 1075 l 746 28 l 303 -42 l 328 1101 l 14 1122 l 14 1403 z "},"U":{"ha":1267,"x_min":35,"x_max":1239,"o":"m 1239 1389 l 1169 225 l 821 0 l 517 0 l 58 201 l 35 1319 l 464 1394 l 460 449 l 518 375 l 772 361 q 779 390 774 367 q 792 447 785 414 q 808 515 800 479 q 824 582 817 551 q 835 633 831 613 q 840 656 840 654 q 839 718 840 690 q 836 773 838 746 q 833 828 835 800 q 828 890 831 856 l 804 1360 l 1239 1389 z "},"V":{"ha":1522,"x_min":21,"x_max":1501,"o":"m 464 1383 l 765 267 l 1032 1383 l 1501 1339 l 1032 42 q 918 16 981 31 q 806 -6 856 1 q 745 -10 778 -8 q 679 -12 713 -11 q 613 -12 646 -12 q 550 -14 579 -12 l 21 1242 l 464 1383 z "},"W":{"ha":1903,"x_min":28,"x_max":1875,"o":"m 517 1389 l 626 400 l 807 903 l 1129 840 l 1350 472 l 1372 1375 l 1875 1292 l 1676 92 l 1253 -14 l 985 524 l 825 39 l 289 -14 l 28 1361 l 517 1389 z "},"X":{"ha":1460,"x_min":21,"x_max":1439,"o":"m 719 990 l 915 1389 l 1369 1346 l 972 769 l 1439 76 l 996 7 l 700 510 l 460 39 l 31 17 l 431 765 l 21 1375 l 504 1389 l 719 990 z "},"Y":{"ha":1439,"x_min":21,"x_max":1418,"o":"m 464 1383 l 738 697 l 949 1383 l 1418 1339 l 885 414 l 915 18 l 419 0 l 558 492 l 21 1242 l 464 1383 z "},"Z":{"ha":1179,"x_min":21,"x_max":1151,"o":"m 1011 1122 l 494 325 l 1128 433 l 1151 3 l 21 42 l 574 1090 l 107 1056 l 51 1361 l 1013 1403 l 1013 1122 l 1011 1122 z "},"[":{"ha":574,"x_min":28,"x_max":546,"o":"m 42 -347 q 33 146 39 -100 q 28 639 28 392 q 33 1111 28 876 q 42 1583 39 1346 l 513 1576 l 499 1343 l 358 1343 l 339 844 q 335 778 338 808 q 332 719 333 749 q 330 660 331 690 q 329 594 329 631 q 330 535 329 561 q 332 483 331 508 q 335 431 333 457 q 339 371 338 404 l 358 -78 l 546 -67 l 513 -347 l 42 -347 z "},"\\":{"ha":925,"x_min":28,"x_max":869,"o":"m 593 -201 l 28 1417 l 282 1499 l 869 -108 l 593 -201 z "},"]":{"ha":574,"x_min":28,"x_max":546,"o":"m 61 -347 l 28 -67 l 215 -78 l 235 371 q 238 431 236 404 q 242 483 240 457 q 244 535 243 508 q 244 594 244 561 q 244 660 244 631 q 242 719 243 690 q 238 778 240 749 q 235 844 236 808 l 215 1343 l 75 1343 l 61 1576 l 532 1583 q 540 1111 535 1346 q 546 639 546 876 q 540 146 546 392 q 532 -347 535 -100 l 61 -347 z "},"^":{"ha":954,"x_min":28,"x_max":926,"o":"m 926 828 l 682 731 l 501 1150 l 328 731 l 28 786 l 390 1407 l 607 1407 l 926 828 z "},"_":{"ha":696,"x_min":-144,"x_max":856,"o":"m 856 -50 l 842 -268 l -144 -282 l -144 -36 l 856 -50 z "},"`":{"ha":461,"x_min":28,"x_max":433,"o":"m 269 1256 l 28 1507 l 225 1550 l 433 1256 l 269 1256 z "},"a":{"ha":1494,"x_min":21,"x_max":1474,"o":"m 550 1383 q 613 1382 579 1382 q 679 1381 646 1382 q 745 1379 713 1381 q 806 1375 778 1378 q 918 1353 856 1368 q 1032 1328 981 1339 l 1474 86 l 1004 42 l 939 331 l 574 390 l 464 -14 l 21 128 l 550 1383 m 879 596 l 765 1103 l 632 608 l 879 596 z "},"b":{"ha":1264,"x_min":35,"x_max":1236,"o":"m 78 1388 q 331 1388 206 1388 q 585 1389 457 1389 q 617 1382 588 1389 q 693 1365 647 1375 q 792 1343 739 1356 q 892 1319 844 1331 q 975 1301 940 1308 q 1018 1290 1010 1293 l 1151 901 l 976 749 l 1236 561 l 1193 85 q 1156 76 1186 83 q 1085 60 1126 69 q 999 40 1044 50 q 914 20 953 29 q 849 6 875 11 q 819 0 822 0 l 478 0 q 438 1 456 0 q 404 3 421 1 q 369 6 388 4 q 331 10 351 8 l 35 28 l 78 1388 m 739 831 l 767 972 l 689 1088 l 442 1103 l 453 757 l 739 831 m 469 276 q 524 281 492 279 q 592 286 557 283 q 658 292 626 289 q 708 300 689 296 q 747 313 724 304 q 797 331 771 321 q 847 351 822 340 q 888 367 871 361 l 792 588 l 458 594 l 469 276 z "},"c":{"ha":1207,"x_min":35,"x_max":1179,"o":"m 735 1075 l 508 972 l 438 543 l 740 343 l 1042 508 l 1179 163 l 635 -62 l 56 232 l 35 1118 l 635 1389 l 1151 1332 l 1060 999 l 735 1075 z "},"d":{"ha":1293,"x_min":35,"x_max":1265,"o":"m 740 1389 l 1119 1178 l 1265 638 l 1049 114 q 1018 103 1043 113 q 958 81 993 93 q 884 54 924 68 q 811 28 844 40 q 756 8 778 15 q 733 0 733 0 l 114 0 q 106 30 113 6 q 91 88 100 54 q 72 159 82 121 q 54 229 63 197 q 40 283 46 261 q 35 304 35 304 q 36 401 35 357 q 40 485 38 444 q 44 569 42 526 q 49 665 47 613 l 78 1389 l 740 1389 m 454 315 l 660 329 l 872 535 l 844 893 l 615 1076 l 415 1071 l 454 315 z "},"e":{"ha":1038,"x_min":35,"x_max":1010,"o":"m 65 1375 l 999 1389 l 943 1056 l 439 1111 l 450 815 l 746 874 l 807 578 l 457 558 l 468 263 l 940 360 l 1010 -1 l 35 -43 l 65 1375 z "},"f":{"ha":1100,"x_min":21,"x_max":1072,"o":"m 46 368 q 38 421 42 397 q 30 467 33 444 q 24 514 26 490 q 21 567 21 538 q 26 640 21 607 q 40 703 32 672 q 56 767 47 735 q 74 839 65 800 l 181 1385 l 181 1389 l 1072 1374 l 1003 1013 l 563 1099 l 447 663 l 911 732 l 931 358 l 431 389 l 525 0 l 96 -28 l 46 368 z "},"g":{"ha":1454,"x_min":28,"x_max":1426,"o":"m 896 1064 q 812 1071 847 1067 q 728 1075 776 1075 q 693 1069 724 1075 q 625 1056 663 1063 q 555 1042 588 1049 q 514 1033 522 1035 l 467 471 l 732 265 l 1019 447 l 1010 565 l 697 538 l 657 881 l 1281 844 l 1426 404 l 1072 6 l 529 -28 l 76 246 l 28 1146 l 544 1403 l 1286 1360 l 1233 1040 l 896 1064 z "},"h":{"ha":1203,"x_min":35,"x_max":1168,"o":"m 65 -42 l 35 1375 l 478 1306 l 453 617 l 738 663 l 674 1375 l 1103 1375 l 1168 38 l 801 -42 l 761 406 l 444 389 l 432 38 l 65 -42 z "},"i":{"ha":513,"x_min":35,"x_max":478,"o":"m 478 28 l 35 -42 l 65 1375 l 432 1296 l 478 28 z "},"j":{"ha":953,"x_min":28,"x_max":925,"o":"m 925 1319 l 867 97 l 482 -25 l 28 125 l 83 538 l 496 303 l 443 1389 l 925 1319 z "},"k":{"ha":1286,"x_min":28,"x_max":1258,"o":"m 97 1389 l 440 1389 l 450 914 l 800 1389 l 1258 1349 l 719 693 l 1258 99 l 800 0 l 507 479 l 461 432 l 468 69 l 28 0 l 97 1389 z "},"l":{"ha":918,"x_min":35,"x_max":890,"o":"m 447 1347 l 410 308 l 867 431 l 890 0 l 35 42 l 49 1389 l 447 1347 z "},"m":{"ha":1914,"x_min":35,"x_max":1879,"o":"m 296 1390 l 829 1336 l 989 379 l 1257 1389 l 1681 1283 l 1879 83 l 1376 0 l 1354 903 l 1133 63 l 811 0 l 631 975 l 521 -14 l 35 15 l 296 1390 z "},"n":{"ha":1263,"x_min":35,"x_max":1228,"o":"m 851 324 l 788 1347 l 1182 1393 l 1228 42 l 721 -28 l 719 -29 l 719 -28 l 715 -28 l 718 -22 l 442 863 l 478 28 l 35 -42 l 65 1375 l 564 1347 l 851 324 z "},"o":{"ha":1599,"x_min":28,"x_max":1571,"o":"m 1571 876 l 1472 225 l 949 -3 l 346 46 l 28 618 l 207 1251 l 740 1460 l 1272 1332 l 1571 876 m 782 336 l 1126 586 l 1133 807 l 1024 1042 l 522 999 l 511 615 l 782 336 z "},"p":{"ha":1189,"x_min":28,"x_max":1161,"o":"m 28 1360 l 251 1388 q 308 1397 285 1392 q 364 1401 331 1401 q 418 1400 393 1401 q 466 1397 443 1399 q 514 1394 489 1396 q 568 1390 539 1392 l 976 1368 l 1161 1042 l 1117 731 l 482 372 l 517 67 l 78 13 l 28 1360 m 453 635 l 797 890 l 731 1101 l 397 1117 l 453 631 l 453 635 z "},"q":{"ha":1561,"x_min":28,"x_max":1533,"o":"m 1533 876 l 1396 307 l 1271 181 l 1364 -96 l 1035 -265 l 911 -3 l 308 46 l 28 621 l 231 1249 l 703 1460 l 1235 1332 l 1533 876 m 457 447 l 732 358 l 582 614 l 813 764 l 1035 499 l 1089 792 l 861 1031 l 499 972 l 457 447 z "},"r":{"ha":1363,"x_min":28,"x_max":1335,"o":"m 86 1375 q 256 1383 171 1378 q 425 1389 340 1389 q 478 1386 454 1389 q 526 1379 503 1383 q 574 1370 550 1375 q 628 1361 599 1365 l 1032 1307 l 1246 972 l 1121 660 l 936 610 l 1335 110 l 903 8 l 503 565 l 815 844 l 765 1060 l 435 1103 l 471 -28 l 28 28 l 86 1375 z "},"s":{"ha":1222,"x_min":28,"x_max":1194,"o":"m 1056 999 q 1024 1007 1050 1000 q 964 1023 999 1014 q 890 1043 929 1032 q 817 1063 850 1054 q 761 1078 783 1072 q 739 1083 739 1083 l 569 1083 l 525 875 l 1065 817 l 1194 343 l 1021 14 l 488 -56 l 28 71 l 124 475 l 617 258 l 767 343 l 742 528 l 167 675 l 181 1213 l 571 1417 l 1147 1332 l 1056 999 z "},"t":{"ha":1058,"x_min":14,"x_max":1044,"o":"m 14 1403 l 1044 1361 l 989 1056 l 708 1075 l 746 28 l 303 -42 l 328 1101 l 14 1122 l 14 1403 z "},"u":{"ha":1267,"x_min":35,"x_max":1239,"o":"m 1239 1389 l 1169 225 l 821 0 l 517 0 l 58 201 l 35 1319 l 464 1394 l 460 449 l 518 375 l 772 361 q 779 390 774 367 q 792 447 785 414 q 808 515 800 479 q 824 582 817 551 q 835 633 831 613 q 840 656 840 654 q 839 718 840 690 q 836 773 838 746 q 833 828 835 800 q 828 890 831 856 l 804 1360 l 1239 1389 z "},"v":{"ha":1522,"x_min":21,"x_max":1501,"o":"m 464 1383 l 765 267 l 1032 1383 l 1501 1339 l 1032 42 q 918 16 981 31 q 806 -6 856 1 q 745 -10 778 -8 q 679 -12 713 -11 q 613 -12 646 -12 q 550 -14 579 -12 l 21 1242 l 464 1383 z "},"w":{"ha":1903,"x_min":28,"x_max":1875,"o":"m 517 1389 l 626 400 l 807 903 l 1129 840 l 1350 472 l 1372 1375 l 1875 1292 l 1676 92 l 1253 -14 l 985 524 l 825 39 l 289 -14 l 28 1361 l 517 1389 z "},"x":{"ha":1460,"x_min":21,"x_max":1439,"o":"m 719 990 l 915 1389 l 1369 1346 l 972 769 l 1439 76 l 996 7 l 700 510 l 460 39 l 31 17 l 431 765 l 21 1375 l 504 1389 l 719 990 z "},"y":{"ha":1439,"x_min":21,"x_max":1418,"o":"m 464 1383 l 738 697 l 949 1383 l 1418 1339 l 885 414 l 915 18 l 419 0 l 558 492 l 21 1242 l 464 1383 z "},"z":{"ha":1179,"x_min":21,"x_max":1151,"o":"m 1011 1122 l 494 325 l 1128 433 l 1151 3 l 21 42 l 574 1090 l 107 1056 l 51 1361 l 1013 1403 l 1013 1122 l 1011 1122 z "},"{":{"ha":775,"x_min":28,"x_max":747,"o":"m 231 531 l 39 531 l 28 844 l 232 849 l 243 1583 l 714 1576 l 700 1343 l 560 1343 l 540 844 q 537 778 539 808 q 533 719 535 749 q 531 660 532 690 q 531 594 531 631 q 531 535 531 561 q 533 483 532 508 q 537 431 535 457 q 540 371 539 404 l 560 -78 l 747 -67 l 714 -347 l 243 -347 l 231 531 z "},"|":{"ha":414,"x_min":28,"x_max":386,"o":"m 28 1472 l 386 1472 l 386 -347 l 28 -347 l 28 1472 z "},"}":{"ha":775,"x_min":28,"x_max":747,"o":"m 61 -347 l 28 -67 l 215 -78 l 235 371 q 238 431 236 404 q 242 483 240 457 q 244 535 243 508 q 244 594 244 561 q 244 660 244 631 q 242 719 243 690 q 238 778 240 749 q 235 844 236 808 l 215 1343 l 75 1343 l 61 1576 l 532 1583 l 543 849 l 747 844 l 736 531 l 544 531 l 532 -347 l 61 -347 z "},"~":{"ha":781,"x_min":28,"x_max":753,"o":"m 28 965 l 178 1161 l 336 1182 l 486 1083 l 569 1178 l 753 1144 l 613 943 l 485 933 l 299 1039 l 224 933 l 28 965 z "},"¡":{"ha":510,"x_min":28,"x_max":482,"o":"m 428 1083 l 422 738 l 63 735 l 68 1081 l 428 1083 m 385 583 l 482 -346 l 28 -346 l 111 583 l 385 583 z "},"¢":{"ha":1214,"x_min":35,"x_max":1179,"o":"m 735 1075 l 453 972 l 382 543 l 740 343 l 1042 508 l 1179 163 l 794 3 l 804 -347 l 501 -347 l 497 8 l 56 232 l 35 1118 l 497 1326 l 501 1583 l 804 1583 l 797 1371 l 1151 1332 l 1060 999 l 735 1075 z "},"£":{"ha":1118,"x_min":14,"x_max":1090,"o":"m 218 794 q 263 1039 247 917 q 283 1286 278 1161 l 406 1446 l 781 1486 l 1056 1285 l 813 1113 l 663 1254 l 601 1218 q 577 1020 589 1118 q 550 824 565 922 l 925 856 l 933 665 l 510 608 q 465 453 490 529 q 408 303 440 378 l 1068 407 l 1090 0 l 54 42 q 56 172 56 107 q 60 303 57 238 q 67 326 61 315 q 76 349 72 338 q 115 455 96 401 q 151 561 133 508 l 68 550 l 14 776 l 218 794 z "},"¤":{"ha":1396,"x_min":28,"x_max":1368,"o":"m 263 418 l 156 617 l 258 997 l 28 1267 l 235 1435 l 463 1176 l 689 1268 l 956 1201 l 1161 1435 l 1368 1267 l 1171 1036 l 1310 817 l 1236 313 l 1229 310 l 1368 153 l 1144 -35 l 954 186 l 844 136 l 428 171 l 251 -35 l 28 153 l 263 418 m 719 399 l 978 592 l 982 763 l 900 944 l 525 911 l 517 614 l 719 399 z "},"¥":{"ha":1439,"x_min":28,"x_max":1425,"o":"m 914 196 l 922 18 l 426 0 l 468 208 l 249 215 l 263 392 l 506 396 l 524 488 l 263 479 l 290 697 l 564 693 l 565 700 l 28 1242 l 471 1383 l 744 878 l 956 1383 l 1425 1339 l 940 688 l 1164 683 l 1178 507 l 899 499 l 903 401 l 1164 406 l 1192 188 l 914 196 z "},"¦":{"ha":386,"x_min":28,"x_max":358,"o":"m 56 746 l 28 1472 l 358 1472 l 344 743 l 56 746 m 331 433 l 358 -347 l 28 -347 l 42 436 l 331 433 z "},"§":{"ha":1131,"x_min":28,"x_max":1103,"o":"m 690 1154 l 356 1126 l 317 985 l 1074 897 l 1103 499 l 1003 392 l 1074 383 l 1093 118 q 1099 51 1096 78 q 1103 -15 1103 24 q 1098 -37 1103 -17 q 1086 -87 1093 -57 q 1072 -152 1079 -117 q 1056 -219 1064 -187 q 1043 -273 1049 -250 q 1036 -301 1038 -296 l 668 -342 q 619 -348 642 -344 q 576 -354 597 -351 q 534 -359 556 -357 q 485 -361 513 -361 q 451 -353 483 -361 q 372 -335 419 -346 q 267 -310 324 -324 q 160 -283 210 -296 q 73 -262 110 -271 q 28 -251 36 -253 l 106 74 l 485 -61 l 779 -89 l 850 -15 l 797 149 l 100 261 l 113 644 l 286 744 l 100 775 l 113 1267 l 543 1444 l 1061 1343 l 981 1053 l 690 1154 m 479 453 q 629 438 554 443 q 779 425 704 432 l 850 499 l 806 638 l 679 663 l 356 578 l 317 471 l 479 453 z "},"¨":{"ha":746,"x_min":28,"x_max":718,"o":"m 339 1639 l 335 1374 l 28 1371 l 33 1636 l 339 1639 m 718 1639 l 714 1374 l 406 1371 l 411 1636 l 718 1639 z "},"©":{"ha":1668,"x_min":28,"x_max":1640,"o":"m 1640 876 l 1542 225 l 1018 -44 l 346 4 l 28 618 l 207 1251 l 740 1460 l 1342 1360 l 1640 876 m 621 201 l 1206 256 l 1415 753 l 1110 1250 l 428 1125 l 350 481 l 621 201 m 910 940 l 760 881 l 717 629 l 913 513 l 1094 610 l 1176 407 l 849 276 l 500 447 l 488 965 l 849 1124 l 1160 1090 l 1106 896 l 910 940 z "},"ª":{"ha":792,"x_min":56,"x_max":747,"o":"m 668 832 l 421 925 l 431 985 l 247 869 l 56 1049 l 188 1556 l 511 1679 l 733 1614 l 668 1076 l 747 1051 l 668 832 m 475 1233 l 518 1471 l 375 1446 l 296 1090 l 475 1233 m 114 803 l 610 793 l 610 643 l 114 635 l 114 803 z "},"«":{"ha":1010,"x_min":28,"x_max":982,"o":"m 413 808 l 510 606 l 203 411 l 510 225 l 454 -6 l 28 300 l 28 517 l 413 808 m 885 808 l 982 606 l 675 411 l 982 225 l 926 -6 l 500 300 l 500 517 l 885 808 z "},"¬":{"ha":972,"x_min":28,"x_max":944,"o":"m 944 811 l 933 354 l 736 358 l 733 604 l 28 593 l 28 825 l 944 811 z "},"®":{"ha":1668,"x_min":28,"x_max":1640,"o":"m 1640 876 l 1542 225 l 1018 -44 l 346 4 l 28 618 l 207 1251 l 740 1460 l 1342 1360 l 1640 876 m 621 201 l 1206 256 l 1415 753 l 1110 1250 l 428 1125 l 350 481 l 621 201 m 553 1111 q 646 1116 599 1114 q 739 1118 693 1118 q 794 1113 771 1118 q 850 1103 818 1108 l 1071 1074 l 1188 890 l 1119 719 l 1018 693 l 1236 419 l 1000 364 l 781 668 l 951 821 l 925 939 l 744 963 l 764 344 l 521 374 l 553 1111 z "},"¯":{"ha":694,"x_min":-144,"x_max":856,"o":"m 856 1714 l 842 1468 l -144 1454 l -144 1728 l 856 1714 z "},"°":{"ha":722,"x_min":61,"x_max":682,"o":"m 682 1250 l 647 1033 l 460 900 l 218 915 l 61 1164 l 125 1376 l 317 1489 l 532 1456 l 682 1250 m 311 1071 l 454 1088 l 507 1210 l 440 1329 l 285 1290 l 258 1119 l 311 1071 z "},"±":{"ha":944,"x_min":28,"x_max":917,"o":"m 28 950 l 363 935 l 378 1258 l 596 1258 l 601 924 l 917 908 l 917 690 l 604 686 l 610 340 l 336 340 l 351 682 l 28 676 l 28 950 m 28 256 l 917 214 l 917 -4 l 28 -18 l 28 256 z "},"²":{"ha":767,"x_min":14,"x_max":711,"o":"m 658 1390 l 278 1093 l 711 1156 l 679 933 l 124 915 l 14 1053 l 424 1469 l 294 1554 l 103 1389 l 38 1617 l 303 1775 l 624 1692 l 658 1390 z "},"³":{"ha":715,"x_min":1,"x_max":686,"o":"m 647 1531 l 496 1369 l 671 1279 l 686 1068 l 447 907 l 46 976 l 90 1213 l 326 1131 l 421 1229 l 108 1293 l 108 1392 l 336 1450 l 421 1539 l 283 1569 l 67 1471 l 1 1699 l 292 1790 l 613 1708 l 647 1531 z "},"´":{"ha":461,"x_min":28,"x_max":433,"o":"m 236 1550 l 433 1507 l 192 1256 l 28 1256 l 236 1550 z "},"¶":{"ha":1085,"x_min":28,"x_max":1050,"o":"m 793 -236 l 831 1138 l 750 1138 l 665 -251 l 421 -264 l 472 460 l 72 731 l 28 1042 l 213 1368 l 547 1390 q 631 1397 596 1393 q 714 1401 665 1401 q 770 1397 747 1401 q 826 1388 793 1392 l 1050 1360 l 1032 -261 l 793 -236 z "},"·":{"ha":474,"x_min":28,"x_max":446,"o":"m 28 985 l 382 1043 l 446 703 l 92 644 l 28 985 z "},"¸":{"ha":410,"x_min":28,"x_max":382,"o":"m 28 -193 l 32 -149 l 125 -232 l 222 -194 l 192 -104 l 94 -99 l 133 72 l 267 53 l 244 -53 l 356 -90 l 382 -217 l 331 -285 l 231 -332 l 96 -314 l 28 -193 z "},"¹":{"ha":486,"x_min":47,"x_max":407,"o":"m 407 946 l 139 918 l 175 1547 l 64 1514 l 47 1728 l 225 1753 l 394 1697 l 407 946 z "},"º":{"ha":754,"x_min":74,"x_max":707,"o":"m 693 1514 l 707 1161 l 513 953 l 242 892 l 74 1085 l 107 1542 l 314 1679 l 572 1653 l 693 1514 m 533 1229 l 489 1471 l 346 1446 l 261 1250 l 332 1094 l 533 1229 m 85 803 l 674 792 l 674 660 l 85 635 l 85 803 z "},"»":{"ha":1010,"x_min":28,"x_max":982,"o":"m 982 300 l 556 -6 l 500 225 l 807 411 l 500 606 l 597 808 l 982 517 l 982 300 m 510 300 l 83 -6 l 28 225 l 335 411 l 28 606 l 125 808 l 510 517 l 510 300 z "},"¼":{"ha":1801,"x_min":163,"x_max":1600,"o":"m 536 736 l 256 707 l 301 1296 l 179 1304 l 163 1517 l 354 1542 l 525 1486 l 536 736 m 1181 1499 l 1421 1417 l 453 -201 l 163 -108 l 1181 1499 m 1600 -96 l 1333 -124 l 1346 119 l 997 171 l 1011 679 l 1278 708 l 1228 297 l 1354 290 l 1378 708 l 1589 731 l 1600 -96 z "},"½":{"ha":1829,"x_min":163,"x_max":1721,"o":"m 536 736 l 256 707 l 301 1296 l 179 1304 l 163 1517 l 354 1542 l 525 1486 l 536 736 m 1181 1499 l 1421 1417 l 453 -201 l 163 -108 l 1181 1499 m 1668 411 l 1315 114 l 1721 176 l 1689 -46 l 1106 -64 l 996 72 l 1406 490 l 1276 533 l 1085 410 l 1019 638 l 1285 796 l 1633 713 l 1668 411 z "},"¾":{"ha":1881,"x_min":89,"x_max":1711,"o":"m 763 1268 l 611 1107 l 786 1017 l 801 806 l 535 644 l 132 714 l 178 950 l 414 868 l 508 967 l 196 1031 l 196 1129 l 424 1188 l 507 1276 l 371 1307 l 154 1208 l 89 1436 l 379 1528 l 728 1446 l 763 1268 m 1292 1499 l 1532 1417 l 564 -201 l 274 -108 l 1292 1499 m 1711 -96 l 1444 -124 l 1457 119 l 1108 171 l 1122 679 l 1389 708 l 1339 297 l 1465 290 l 1489 708 l 1700 731 l 1711 -96 z "},"¿":{"ha":1039,"x_min":28,"x_max":1011,"o":"m 725 694 l 378 788 l 460 1124 l 807 1031 l 725 694 m 28 71 l 189 376 l 425 486 l 426 594 l 754 594 l 726 278 l 425 146 l 422 -121 l 625 -106 l 903 128 l 1011 -261 l 611 -414 l 129 -350 l 28 71 z "},"À":{"ha":1494,"x_min":21,"x_max":1474,"o":"m 786 1533 l 544 1785 l 742 1828 l 950 1533 l 786 1533 m 550 1383 q 613 1382 579 1382 q 679 1381 646 1382 q 745 1379 713 1381 q 806 1375 778 1378 q 918 1353 856 1368 q 1032 1328 981 1339 l 1474 86 l 1004 42 l 939 331 l 574 390 l 464 -14 l 21 128 l 550 1383 m 879 596 l 765 1103 l 632 608 l 879 596 z "},"Á":{"ha":1494,"x_min":21,"x_max":1474,"o":"m 753 1828 l 950 1785 l 708 1533 l 544 1533 l 753 1828 m 550 1383 q 613 1382 579 1382 q 679 1381 646 1382 q 745 1379 713 1381 q 806 1375 778 1378 q 918 1353 856 1368 q 1032 1328 981 1339 l 1474 86 l 1004 42 l 939 331 l 574 390 l 464 -14 l 21 128 l 550 1383 m 879 596 l 765 1103 l 632 608 l 879 596 z "},"Â":{"ha":1494,"x_min":21,"x_max":1474,"o":"m 775 1764 l 1076 1479 l 885 1479 l 728 1567 l 611 1479 l 419 1479 l 664 1735 l 775 1764 m 550 1383 q 613 1382 579 1382 q 679 1381 646 1382 q 745 1379 713 1381 q 806 1375 778 1378 q 918 1353 856 1368 q 1032 1328 981 1339 l 1474 86 l 1004 42 l 939 331 l 574 390 l 464 -14 l 21 128 l 550 1383 m 879 596 l 765 1103 l 632 608 l 879 596 z "},"Ã":{"ha":1494,"x_min":21,"x_max":1474,"o":"m 413 1507 l 507 1703 l 693 1724 l 871 1625 l 899 1719 l 1082 1686 l 997 1485 l 842 1475 l 628 1581 l 608 1475 l 413 1507 m 550 1383 q 613 1382 579 1382 q 679 1381 646 1382 q 745 1379 713 1381 q 806 1375 778 1378 q 918 1353 856 1368 q 1032 1328 981 1339 l 1474 86 l 1004 42 l 939 331 l 574 390 l 464 -14 l 21 128 l 550 1383 m 879 596 l 765 1103 l 632 608 l 879 596 z "},"Ä":{"ha":1494,"x_min":21,"x_max":1474,"o":"m 714 1750 l 710 1485 l 403 1482 l 408 1747 l 714 1750 m 1093 1750 l 1089 1485 l 781 1482 l 786 1747 l 1093 1750 m 550 1383 q 613 1382 579 1382 q 679 1381 646 1382 q 745 1379 713 1381 q 806 1375 778 1378 q 918 1353 856 1368 q 1032 1328 981 1339 l 1474 86 l 1004 42 l 939 331 l 574 390 l 464 -14 l 21 128 l 550 1383 m 879 596 l 765 1103 l 632 608 l 879 596 z "},"Å":{"ha":1494,"x_min":21,"x_max":1474,"o":"m 969 1560 l 947 1424 l 863 1363 l 1032 1328 l 1474 86 l 1004 42 l 939 331 l 574 390 l 464 -14 l 21 128 l 550 1383 l 660 1379 l 581 1506 l 621 1639 l 740 1710 l 875 1689 l 969 1560 m 738 1447 l 826 1458 l 860 1535 l 818 1610 l 721 1585 l 704 1478 l 738 1447 m 879 596 l 765 1103 l 632 608 l 879 596 z "},"Æ":{"ha":1924,"x_min":28,"x_max":1896,"o":"m 696 1383 q 824 1378 760 1381 q 951 1375 888 1375 q 1418 1381 1186 1375 q 1885 1389 1650 1386 l 1829 1056 l 1325 1111 l 1336 815 l 1632 874 l 1693 578 l 1343 558 l 1354 263 l 1826 360 l 1896 -1 l 921 -43 l 929 357 l 636 404 l 471 -14 l 28 128 l 696 1383 m 935 600 l 946 1132 l 911 1103 l 718 611 l 935 600 z "},"Ç":{"ha":1207,"x_min":35,"x_max":1179,"o":"m 426 -221 l 431 -176 l 524 -260 l 621 -222 l 590 -132 l 493 -126 l 511 0 l 56 232 l 35 1118 l 635 1389 l 1151 1332 l 1060 999 l 735 1075 l 508 972 l 438 543 l 740 343 l 1042 508 l 1179 163 l 649 -57 l 643 -81 l 754 -118 l 781 -244 l 729 -312 l 629 -360 l 494 -342 l 426 -221 z "},"È":{"ha":1031,"x_min":28,"x_max":1003,"o":"m 513 1533 l 271 1785 l 468 1828 l 676 1533 l 513 1533 m 58 1375 l 992 1389 l 936 1056 l 432 1111 l 443 815 l 739 874 l 800 578 l 450 558 l 461 263 l 933 360 l 1003 -1 l 28 -43 l 58 1375 z "},"É":{"ha":1031,"x_min":28,"x_max":1003,"o":"m 521 1828 l 718 1785 l 476 1533 l 313 1533 l 521 1828 m 58 1375 l 992 1389 l 936 1056 l 432 1111 l 443 815 l 739 874 l 800 578 l 450 558 l 461 263 l 933 360 l 1003 -1 l 28 -43 l 58 1375 z "},"Ê":{"ha":1031,"x_min":28,"x_max":1003,"o":"m 543 1764 l 844 1479 l 653 1479 l 496 1567 l 379 1479 l 188 1479 l 432 1735 l 543 1764 m 58 1375 l 992 1389 l 936 1056 l 432 1111 l 443 815 l 739 874 l 800 578 l 450 558 l 461 263 l 933 360 l 1003 -1 l 28 -43 l 58 1375 z "},"Ë":{"ha":1031,"x_min":28,"x_max":1003,"o":"m 482 1750 l 478 1485 l 171 1482 l 176 1747 l 482 1750 m 861 1750 l 857 1485 l 549 1482 l 554 1747 l 861 1750 m 58 1375 l 992 1389 l 936 1056 l 432 1111 l 443 815 l 739 874 l 800 578 l 450 558 l 461 263 l 933 360 l 1003 -1 l 28 -43 l 58 1375 z "},"Ì":{"ha":499,"x_min":28,"x_max":471,"o":"m 289 1533 l 47 1785 l 244 1828 l 453 1533 l 289 1533 m 471 28 l 28 -42 l 58 1375 l 425 1296 l 471 28 z "},"Í":{"ha":499,"x_min":28,"x_max":471,"o":"m 256 1828 l 453 1785 l 211 1533 l 47 1533 l 256 1828 m 471 28 l 28 -42 l 58 1375 l 425 1296 l 471 28 z "},"Î":{"ha":499,"x_min":-79,"x_max":578,"o":"m 276 1764 l 578 1479 l 386 1479 l 229 1567 l 113 1479 l -79 1479 l 165 1735 l 276 1764 m 471 28 l 28 -42 l 58 1375 l 425 1296 l 471 28 z "},"Ï":{"ha":746,"x_min":28,"x_max":718,"o":"m 339 1750 l 335 1485 l 28 1482 l 33 1747 l 339 1750 m 718 1750 l 714 1485 l 406 1482 l 411 1747 l 718 1750 m 594 28 l 151 -42 l 182 1375 l 549 1296 l 594 28 z "},"Ð":{"ha":1342,"x_min":14,"x_max":1314,"o":"m 14 922 l 108 921 l 126 1389 l 789 1389 l 1168 1178 l 1314 638 l 1097 114 q 1067 103 1092 113 q 1007 81 1042 93 q 933 54 972 68 q 860 28 893 40 q 804 8 826 15 q 782 0 782 0 l 163 0 q 155 30 161 6 q 140 88 149 54 q 121 159 131 121 q 103 229 111 197 q 89 283 94 261 q 83 304 83 304 q 89 478 83 392 q 97 650 94 564 l 14 649 l 14 922 m 472 913 l 639 908 l 639 663 l 485 660 l 503 315 l 708 329 l 921 535 l 893 893 l 664 1076 l 464 1071 l 472 913 z "},"Ñ":{"ha":1249,"x_min":28,"x_max":1221,"o":"m 290 1507 l 385 1703 l 571 1724 l 749 1625 l 776 1719 l 960 1686 l 875 1485 l 719 1475 l 506 1581 l 486 1475 l 290 1507 m 844 324 l 781 1347 l 1175 1393 l 1221 42 l 714 -28 l 713 -29 l 713 -28 l 708 -28 l 711 -22 l 435 863 l 471 28 l 28 -42 l 58 1375 l 557 1347 l 844 324 z "},"Ò":{"ha":1599,"x_min":28,"x_max":1571,"o":"m 824 1533 l 582 1785 l 779 1828 l 988 1533 l 824 1533 m 1571 876 l 1472 225 l 949 -3 l 346 46 l 28 618 l 207 1251 l 740 1460 l 1272 1332 l 1571 876 m 782 336 l 1126 586 l 1133 807 l 1024 1042 l 522 999 l 511 615 l 782 336 z "},"Ó":{"ha":1599,"x_min":28,"x_max":1571,"o":"m 790 1828 l 988 1785 l 746 1533 l 582 1533 l 790 1828 m 1571 876 l 1472 225 l 949 -3 l 346 46 l 28 618 l 207 1251 l 740 1460 l 1272 1332 l 1571 876 m 782 336 l 1126 586 l 1133 807 l 1024 1042 l 522 999 l 511 615 l 782 336 z "},"Ô":{"ha":1599,"x_min":28,"x_max":1571,"o":"m 811 1764 l 1113 1479 l 921 1479 l 764 1567 l 647 1479 l 456 1479 l 700 1735 l 811 1764 m 1571 876 l 1472 225 l 949 -3 l 346 46 l 28 618 l 207 1251 l 740 1460 l 1272 1332 l 1571 876 m 782 336 l 1126 586 l 1133 807 l 1024 1042 l 522 999 l 511 615 l 782 336 z "},"Õ":{"ha":1599,"x_min":28,"x_max":1571,"o":"m 450 1507 l 544 1703 l 731 1724 l 908 1625 l 936 1719 l 1119 1686 l 1035 1485 l 879 1475 l 665 1581 l 646 1475 l 450 1507 m 1571 876 l 1472 225 l 949 -3 l 346 46 l 28 618 l 207 1251 l 740 1460 l 1272 1332 l 1571 876 m 782 336 l 1126 586 l 1133 807 l 1024 1042 l 522 999 l 511 615 l 782 336 z "},"Ö":{"ha":1599,"x_min":28,"x_max":1571,"o":"m 750 1750 l 746 1485 l 439 1482 l 444 1747 l 750 1750 m 1129 1750 l 1125 1485 l 817 1482 l 822 1747 l 1129 1750 m 1571 876 l 1472 225 l 949 -3 l 346 46 l 28 618 l 207 1251 l 740 1460 l 1272 1332 l 1571 876 m 782 336 l 1126 586 l 1133 807 l 1024 1042 l 522 999 l 511 615 l 782 336 z "},"×":{"ha":889,"x_min":28,"x_max":861,"o":"m 607 285 l 444 514 l 256 243 l 68 333 l 313 700 l 28 1103 l 228 1175 l 439 889 l 621 1161 l 861 1111 l 576 703 l 850 332 l 607 285 z "},"Ø":{"ha":1654,"x_min":21,"x_max":1633,"o":"m 219 326 l 57 618 l 236 1251 l 769 1460 l 1301 1332 l 1324 1299 l 1463 1421 l 1633 1210 l 1475 1067 l 1600 876 l 1501 225 l 978 -3 l 375 46 l 364 65 l 204 -79 l 21 153 l 219 326 m 543 613 l 1029 1040 l 551 999 l 540 615 l 543 613 m 1156 586 l 1163 785 l 743 407 l 811 336 l 1156 586 z "},"Ù":{"ha":1267,"x_min":35,"x_max":1239,"o":"m 599 1533 l 357 1785 l 554 1828 l 763 1533 l 599 1533 m 1239 1389 l 1169 225 l 821 0 l 517 0 l 58 201 l 35 1319 l 464 1394 l 460 449 l 518 375 l 772 361 q 779 390 774 367 q 792 447 785 414 q 808 515 800 479 q 824 582 817 551 q 835 633 831 613 q 840 656 840 654 q 839 718 840 690 q 836 773 838 746 q 833 828 835 800 q 828 890 831 856 l 804 1360 l 1239 1389 z "},"Ú":{"ha":1267,"x_min":35,"x_max":1239,"o":"m 746 1828 l 943 1785 l 701 1533 l 538 1533 l 746 1828 m 1239 1389 l 1169 225 l 821 0 l 517 0 l 58 201 l 35 1319 l 464 1394 l 460 449 l 518 375 l 772 361 q 779 390 774 367 q 792 447 785 414 q 808 515 800 479 q 824 582 817 551 q 835 633 831 613 q 840 656 840 654 q 839 718 840 690 q 836 773 838 746 q 833 828 835 800 q 828 890 831 856 l 804 1360 l 1239 1389 z "},"Û":{"ha":1267,"x_min":35,"x_max":1239,"o":"m 656 1764 l 957 1479 l 765 1479 l 608 1567 l 492 1479 l 300 1479 l 544 1735 l 656 1764 m 1239 1389 l 1169 225 l 821 0 l 517 0 l 58 201 l 35 1319 l 464 1394 l 460 449 l 518 375 l 772 361 q 779 390 774 367 q 792 447 785 414 q 808 515 800 479 q 824 582 817 551 q 835 633 831 613 q 840 656 840 654 q 839 718 840 690 q 836 773 838 746 q 833 828 835 800 q 828 890 831 856 l 804 1360 l 1239 1389 z "},"Ü":{"ha":1267,"x_min":35,"x_max":1239,"o":"m 594 1750 l 590 1485 l 283 1482 l 289 1747 l 594 1750 m 974 1750 l 969 1485 l 661 1482 l 667 1747 l 974 1750 m 1239 1389 l 1169 225 l 821 0 l 517 0 l 58 201 l 35 1319 l 464 1394 l 460 449 l 518 375 l 772 361 q 779 390 774 367 q 792 447 785 414 q 808 515 800 479 q 824 582 817 551 q 835 633 831 613 q 840 656 840 654 q 839 718 840 690 q 836 773 838 746 q 833 828 835 800 q 828 890 831 856 l 804 1360 l 1239 1389 z "},"Ý":{"ha":1425,"x_min":14,"x_max":1411,"o":"m 794 1772 l 992 1729 l 750 1478 l 586 1478 l 794 1772 m 457 1383 l 731 697 l 942 1383 l 1411 1339 l 878 414 l 908 18 l 413 0 l 551 492 l 14 1242 l 457 1383 z "},"Þ":{"ha":1194,"x_min":28,"x_max":1138,"o":"m 28 1360 l 364 1401 l 386 1206 l 953 1174 l 1138 847 l 1093 536 l 501 203 l 517 67 l 78 13 l 28 1360 m 774 696 l 707 907 l 419 921 l 471 472 l 774 696 z "},"ß":{"ha":1167,"x_min":28,"x_max":1146,"o":"m 71 1388 q 324 1388 199 1388 q 578 1389 450 1389 q 606 1382 579 1389 q 672 1365 632 1375 q 758 1342 711 1354 q 847 1319 804 1331 q 919 1300 889 1308 q 956 1290 949 1292 l 1089 901 l 914 749 l 1146 561 l 1103 85 q 1069 76 1097 83 q 1003 60 1042 69 q 922 40 965 51 q 843 20 879 29 q 783 6 807 11 q 757 0 758 0 l 610 0 l 567 272 q 690 317 629 292 q 811 367 750 342 l 729 588 l 561 594 l 522 740 l 676 831 l 704 972 l 626 1088 l 435 1103 l 471 0 l 28 28 l 71 1388 z "},"à":{"ha":1494,"x_min":21,"x_max":1474,"o":"m 786 1533 l 544 1785 l 742 1828 l 950 1533 l 786 1533 m 550 1383 q 613 1382 579 1382 q 679 1381 646 1382 q 745 1379 713 1381 q 806 1375 778 1378 q 918 1353 856 1368 q 1032 1328 981 1339 l 1474 86 l 1004 42 l 939 331 l 574 390 l 464 -14 l 21 128 l 550 1383 m 879 596 l 765 1103 l 632 608 l 879 596 z "},"á":{"ha":1494,"x_min":21,"x_max":1474,"o":"m 753 1828 l 950 1785 l 708 1533 l 544 1533 l 753 1828 m 550 1383 q 613 1382 579 1382 q 679 1381 646 1382 q 745 1379 713 1381 q 806 1375 778 1378 q 918 1353 856 1368 q 1032 1328 981 1339 l 1474 86 l 1004 42 l 939 331 l 574 390 l 464 -14 l 21 128 l 550 1383 m 879 596 l 765 1103 l 632 608 l 879 596 z "},"â":{"ha":1494,"x_min":21,"x_max":1474,"o":"m 775 1764 l 1076 1479 l 885 1479 l 728 1567 l 611 1479 l 419 1479 l 664 1735 l 775 1764 m 550 1383 q 613 1382 579 1382 q 679 1381 646 1382 q 745 1379 713 1381 q 806 1375 778 1378 q 918 1353 856 1368 q 1032 1328 981 1339 l 1474 86 l 1004 42 l 939 331 l 574 390 l 464 -14 l 21 128 l 550 1383 m 879 596 l 765 1103 l 632 608 l 879 596 z "},"ã":{"ha":1494,"x_min":21,"x_max":1474,"o":"m 413 1507 l 507 1703 l 693 1724 l 871 1625 l 899 1719 l 1082 1686 l 997 1485 l 842 1475 l 628 1581 l 608 1475 l 413 1507 m 550 1383 q 613 1382 579 1382 q 679 1381 646 1382 q 745 1379 713 1381 q 806 1375 778 1378 q 918 1353 856 1368 q 1032 1328 981 1339 l 1474 86 l 1004 42 l 939 331 l 574 390 l 464 -14 l 21 128 l 550 1383 m 879 596 l 765 1103 l 632 608 l 879 596 z "},"ä":{"ha":1494,"x_min":21,"x_max":1474,"o":"m 714 1750 l 710 1485 l 403 1482 l 408 1747 l 714 1750 m 1093 1750 l 1089 1485 l 781 1482 l 786 1747 l 1093 1750 m 550 1383 q 613 1382 579 1382 q 679 1381 646 1382 q 745 1379 713 1381 q 806 1375 778 1378 q 918 1353 856 1368 q 1032 1328 981 1339 l 1474 86 l 1004 42 l 939 331 l 574 390 l 464 -14 l 21 128 l 550 1383 m 879 596 l 765 1103 l 632 608 l 879 596 z "},"å":{"ha":1494,"x_min":21,"x_max":1474,"o":"m 969 1560 l 947 1424 l 863 1363 l 1032 1328 l 1474 86 l 1004 42 l 939 331 l 574 390 l 464 -14 l 21 128 l 550 1383 l 660 1379 l 581 1506 l 621 1639 l 740 1710 l 875 1689 l 969 1560 m 738 1447 l 826 1458 l 860 1535 l 818 1610 l 721 1585 l 704 1478 l 738 1447 m 879 596 l 765 1103 l 632 608 l 879 596 z "},"æ":{"ha":1924,"x_min":28,"x_max":1896,"o":"m 696 1383 q 824 1378 760 1381 q 951 1375 888 1375 q 1418 1381 1186 1375 q 1885 1389 1650 1386 l 1829 1056 l 1325 1111 l 1336 815 l 1632 874 l 1693 578 l 1343 558 l 1354 263 l 1826 360 l 1896 -1 l 921 -43 l 929 357 l 636 404 l 471 -14 l 28 128 l 696 1383 m 935 600 l 946 1132 l 911 1103 l 718 611 l 935 600 z "},"ç":{"ha":1207,"x_min":35,"x_max":1179,"o":"m 426 -221 l 431 -176 l 524 -260 l 621 -222 l 590 -132 l 493 -126 l 511 0 l 56 232 l 35 1118 l 635 1389 l 1151 1332 l 1060 999 l 735 1075 l 508 972 l 438 543 l 740 343 l 1042 508 l 1179 163 l 649 -57 l 643 -81 l 754 -118 l 781 -244 l 729 -312 l 629 -360 l 494 -342 l 426 -221 z "},"è":{"ha":1031,"x_min":28,"x_max":1003,"o":"m 513 1533 l 271 1785 l 468 1828 l 676 1533 l 513 1533 m 58 1375 l 992 1389 l 936 1056 l 432 1111 l 443 815 l 739 874 l 800 578 l 450 558 l 461 263 l 933 360 l 1003 -1 l 28 -43 l 58 1375 z "},"é":{"ha":1031,"x_min":28,"x_max":1003,"o":"m 521 1828 l 718 1785 l 476 1533 l 313 1533 l 521 1828 m 58 1375 l 992 1389 l 936 1056 l 432 1111 l 443 815 l 739 874 l 800 578 l 450 558 l 461 263 l 933 360 l 1003 -1 l 28 -43 l 58 1375 z "},"ê":{"ha":1031,"x_min":28,"x_max":1003,"o":"m 543 1764 l 844 1479 l 653 1479 l 496 1567 l 379 1479 l 188 1479 l 432 1735 l 543 1764 m 58 1375 l 992 1389 l 936 1056 l 432 1111 l 443 815 l 739 874 l 800 578 l 450 558 l 461 263 l 933 360 l 1003 -1 l 28 -43 l 58 1375 z "},"ë":{"ha":1031,"x_min":28,"x_max":1003,"o":"m 482 1750 l 478 1485 l 171 1482 l 176 1747 l 482 1750 m 861 1750 l 857 1485 l 549 1482 l 554 1747 l 861 1750 m 58 1375 l 992 1389 l 936 1056 l 432 1111 l 443 815 l 739 874 l 800 578 l 450 558 l 461 263 l 933 360 l 1003 -1 l 28 -43 l 58 1375 z "},"ì":{"ha":499,"x_min":28,"x_max":471,"o":"m 289 1533 l 47 1785 l 244 1828 l 453 1533 l 289 1533 m 471 28 l 28 -42 l 58 1375 l 425 1296 l 471 28 z "},"í":{"ha":499,"x_min":28,"x_max":471,"o":"m 256 1828 l 453 1785 l 211 1533 l 47 1533 l 256 1828 m 471 28 l 28 -42 l 58 1375 l 425 1296 l 471 28 z "},"î":{"ha":499,"x_min":-79,"x_max":578,"o":"m 276 1764 l 578 1479 l 386 1479 l 229 1567 l 113 1479 l -79 1479 l 165 1735 l 276 1764 m 471 28 l 28 -42 l 58 1375 l 425 1296 l 471 28 z "},"ï":{"ha":746,"x_min":28,"x_max":718,"o":"m 339 1750 l 335 1485 l 28 1482 l 33 1747 l 339 1750 m 718 1750 l 714 1485 l 406 1482 l 411 1747 l 718 1750 m 594 28 l 151 -42 l 182 1375 l 549 1296 l 594 28 z "},"ð":{"ha":1179,"x_min":28,"x_max":1150,"o":"m 243 1057 l 650 1115 l 647 1156 l 93 1261 l 188 1425 l 775 1411 l 954 1158 l 1125 1183 l 1150 971 l 969 946 l 1017 113 l 479 -43 l 46 85 l 28 593 l 246 781 l 644 754 l 685 690 l 668 903 l 267 846 l 243 1057 m 517 261 q 557 265 529 261 q 615 275 585 269 q 673 286 644 281 q 717 294 701 292 l 701 485 l 500 550 l 318 450 l 367 261 l 517 261 z "},"ñ":{"ha":1249,"x_min":28,"x_max":1221,"o":"m 290 1507 l 385 1703 l 571 1724 l 749 1625 l 776 1719 l 960 1686 l 875 1485 l 719 1475 l 506 1581 l 486 1475 l 290 1507 m 844 324 l 781 1347 l 1175 1393 l 1221 42 l 714 -28 l 713 -29 l 713 -28 l 708 -28 l 711 -22 l 435 863 l 471 28 l 28 -42 l 58 1375 l 557 1347 l 844 324 z "},"ò":{"ha":1599,"x_min":28,"x_max":1571,"o":"m 824 1533 l 582 1785 l 779 1828 l 988 1533 l 824 1533 m 1571 876 l 1472 225 l 949 -3 l 346 46 l 28 618 l 207 1251 l 740 1460 l 1272 1332 l 1571 876 m 782 336 l 1126 586 l 1133 807 l 1024 1042 l 522 999 l 511 615 l 782 336 z "},"ó":{"ha":1599,"x_min":28,"x_max":1571,"o":"m 790 1828 l 988 1785 l 746 1533 l 582 1533 l 790 1828 m 1571 876 l 1472 225 l 949 -3 l 346 46 l 28 618 l 207 1251 l 740 1460 l 1272 1332 l 1571 876 m 782 336 l 1126 586 l 1133 807 l 1024 1042 l 522 999 l 511 615 l 782 336 z "},"ô":{"ha":1599,"x_min":28,"x_max":1571,"o":"m 811 1764 l 1113 1479 l 921 1479 l 764 1567 l 647 1479 l 456 1479 l 700 1735 l 811 1764 m 1571 876 l 1472 225 l 949 -3 l 346 46 l 28 618 l 207 1251 l 740 1460 l 1272 1332 l 1571 876 m 782 336 l 1126 586 l 1133 807 l 1024 1042 l 522 999 l 511 615 l 782 336 z "},"õ":{"ha":1599,"x_min":28,"x_max":1571,"o":"m 450 1507 l 544 1703 l 731 1724 l 908 1625 l 936 1719 l 1119 1686 l 1035 1485 l 879 1475 l 665 1581 l 646 1475 l 450 1507 m 1571 876 l 1472 225 l 949 -3 l 346 46 l 28 618 l 207 1251 l 740 1460 l 1272 1332 l 1571 876 m 782 336 l 1126 586 l 1133 807 l 1024 1042 l 522 999 l 511 615 l 782 336 z "},"ö":{"ha":1599,"x_min":28,"x_max":1571,"o":"m 750 1750 l 746 1485 l 439 1482 l 444 1747 l 750 1750 m 1129 1750 l 1125 1485 l 817 1482 l 822 1747 l 1129 1750 m 1571 876 l 1472 225 l 949 -3 l 346 46 l 28 618 l 207 1251 l 740 1460 l 1272 1332 l 1571 876 m 782 336 l 1126 586 l 1133 807 l 1024 1042 l 522 999 l 511 615 l 782 336 z "},"÷":{"ha":917,"x_min":28,"x_max":889,"o":"m 250 1276 l 604 1335 l 668 994 l 314 936 l 250 1276 m 28 853 l 889 811 l 889 593 l 28 579 l 28 853 m 250 429 l 604 488 l 668 147 l 314 89 l 250 429 z "},"ø":{"ha":1654,"x_min":21,"x_max":1633,"o":"m 219 326 l 57 618 l 236 1251 l 769 1460 l 1301 1332 l 1324 1299 l 1463 1421 l 1633 1210 l 1475 1067 l 1600 876 l 1501 225 l 978 -3 l 375 46 l 364 65 l 204 -79 l 21 153 l 219 326 m 543 613 l 1029 1040 l 551 999 l 540 615 l 543 613 m 1156 586 l 1163 785 l 743 407 l 811 336 l 1156 586 z "},"ù":{"ha":1267,"x_min":35,"x_max":1239,"o":"m 599 1533 l 357 1785 l 554 1828 l 763 1533 l 599 1533 m 1239 1389 l 1169 225 l 821 0 l 517 0 l 58 201 l 35 1319 l 464 1394 l 460 449 l 518 375 l 772 361 q 779 390 774 367 q 792 447 785 414 q 808 515 800 479 q 824 582 817 551 q 835 633 831 613 q 840 656 840 654 q 839 718 840 690 q 836 773 838 746 q 833 828 835 800 q 828 890 831 856 l 804 1360 l 1239 1389 z "},"ú":{"ha":1267,"x_min":35,"x_max":1239,"o":"m 746 1828 l 943 1785 l 701 1533 l 538 1533 l 746 1828 m 1239 1389 l 1169 225 l 821 0 l 517 0 l 58 201 l 35 1319 l 464 1394 l 460 449 l 518 375 l 772 361 q 779 390 774 367 q 792 447 785 414 q 808 515 800 479 q 824 582 817 551 q 835 633 831 613 q 840 656 840 654 q 839 718 840 690 q 836 773 838 746 q 833 828 835 800 q 828 890 831 856 l 804 1360 l 1239 1389 z "},"û":{"ha":1267,"x_min":35,"x_max":1239,"o":"m 656 1764 l 957 1479 l 765 1479 l 608 1567 l 492 1479 l 300 1479 l 544 1735 l 656 1764 m 1239 1389 l 1169 225 l 821 0 l 517 0 l 58 201 l 35 1319 l 464 1394 l 460 449 l 518 375 l 772 361 q 779 390 774 367 q 792 447 785 414 q 808 515 800 479 q 824 582 817 551 q 835 633 831 613 q 840 656 840 654 q 839 718 840 690 q 836 773 838 746 q 833 828 835 800 q 828 890 831 856 l 804 1360 l 1239 1389 z "},"ü":{"ha":1267,"x_min":35,"x_max":1239,"o":"m 594 1750 l 590 1485 l 283 1482 l 289 1747 l 594 1750 m 974 1750 l 969 1485 l 661 1482 l 667 1747 l 974 1750 m 1239 1389 l 1169 225 l 821 0 l 517 0 l 58 201 l 35 1319 l 464 1394 l 460 449 l 518 375 l 772 361 q 779 390 774 367 q 792 447 785 414 q 808 515 800 479 q 824 582 817 551 q 835 633 831 613 q 840 656 840 654 q 839 718 840 690 q 836 773 838 746 q 833 828 835 800 q 828 890 831 856 l 804 1360 l 1239 1389 z "},"ý":{"ha":1425,"x_min":14,"x_max":1411,"o":"m 672 1750 l 668 1485 l 361 1482 l 367 1747 l 672 1750 m 1051 1750 l 1047 1485 l 739 1482 l 744 1747 l 1051 1750 m 457 1383 l 731 697 l 942 1383 l 1411 1339 l 878 414 l 908 18 l 413 0 l 551 492 l 14 1242 l 457 1383 z "},"þ":{"ha":1194,"x_min":28,"x_max":1138,"o":"m 28 1360 l 364 1401 l 386 1206 l 953 1174 l 1138 847 l 1093 536 l 501 203 l 517 67 l 78 13 l 28 1360 m 774 696 l 707 907 l 419 921 l 471 472 l 774 696 z "},"ÿ":{"ha":1425,"x_min":14,"x_max":1411,"o":"m 794 1772 l 992 1729 l 750 1478 l 586 1478 l 794 1772 m 457 1383 l 731 697 l 942 1383 l 1411 1339 l 878 414 l 908 18 l 413 0 l 551 492 l 14 1242 l 457 1383 z "},"Đ":{"ha":1342,"x_min":14,"x_max":1314,"o":"m 14 922 l 108 921 l 126 1389 l 789 1389 l 1168 1178 l 1314 638 l 1097 114 q 1067 103 1092 113 q 1007 81 1042 93 q 933 54 972 68 q 860 28 893 40 q 804 8 826 15 q 782 0 782 0 l 163 0 q 155 30 161 6 q 140 88 149 54 q 121 159 131 121 q 103 229 111 197 q 89 283 94 261 q 83 304 83 304 q 89 478 83 392 q 97 650 94 564 l 14 649 l 14 922 m 472 913 l 667 908 l 667 663 l 485 658 l 503 315 l 708 329 l 921 535 l 893 893 l 664 1076 l 464 1071 l 472 913 z "},"đ":{"ha":1342,"x_min":14,"x_max":1314,"o":"m 14 922 l 108 921 l 126 1389 l 789 1389 l 1168 1178 l 1314 638 l 1097 114 q 1067 103 1092 113 q 1007 81 1042 93 q 933 54 972 68 q 860 28 893 40 q 804 8 826 15 q 782 0 782 0 l 163 0 q 155 30 161 6 q 140 88 149 54 q 121 159 131 121 q 103 229 111 197 q 89 283 94 261 q 83 304 83 304 q 89 478 83 392 q 97 650 94 564 l 14 649 l 14 922 m 472 913 l 667 908 l 667 663 l 485 658 l 503 315 l 708 329 l 921 535 l 893 893 l 664 1076 l 464 1071 l 472 913 z "},"ı":{"ha":471,"x_min":28,"x_max":443,"o":"m 443 28 l 28 -42 l 58 986 l 397 907 l 443 28 z "},"Ł":{"ha":1069,"x_min":14,"x_max":1042,"o":"m 193 728 l 200 1389 l 599 1347 l 583 924 l 803 1035 l 883 847 l 575 679 l 561 308 l 1018 431 l 1042 0 l 186 42 l 190 469 l 121 432 l 14 638 l 193 728 z "},"ł":{"ha":1069,"x_min":14,"x_max":1042,"o":"m 193 728 l 200 1389 l 599 1347 l 583 924 l 803 1035 l 883 847 l 575 679 l 561 308 l 1018 431 l 1042 0 l 186 42 l 190 469 l 121 432 l 14 638 l 193 728 z "},"Œ":{"ha":2115,"x_min":28,"x_max":2088,"o":"m 28 618 l 207 1251 l 740 1460 l 1143 1363 l 1143 1375 l 2076 1389 l 2014 1024 l 1517 1097 l 1528 815 l 1824 874 l 1885 578 l 1535 558 l 1546 263 l 2018 360 l 2088 -1 l 1113 -43 l 1115 69 l 949 -3 l 346 46 l 28 618 m 782 336 l 1126 586 l 1131 813 l 1024 1042 l 522 999 l 511 615 l 782 336 z "},"œ":{"ha":2115,"x_min":28,"x_max":2088,"o":"m 28 618 l 207 1251 l 740 1460 l 1143 1363 l 1143 1375 l 2076 1389 l 2014 1024 l 1517 1097 l 1528 815 l 1824 874 l 1885 578 l 1535 558 l 1546 263 l 2018 360 l 2088 -1 l 1113 -43 l 1115 69 l 949 -3 l 346 46 l 28 618 m 782 336 l 1126 586 l 1131 813 l 1024 1042 l 522 999 l 511 615 l 782 336 z "},"Š":{"ha":1208,"x_min":21,"x_max":1188,"o":"m 318 1736 l 510 1736 l 626 1649 l 783 1736 l 975 1736 l 674 1451 l 563 1481 l 318 1736 m 1049 999 q 1017 1007 1043 1000 q 957 1023 992 1014 q 883 1043 922 1032 q 810 1063 843 1054 q 755 1078 776 1072 q 732 1083 733 1083 l 563 1083 l 518 875 l 1058 817 l 1188 343 l 1014 14 l 481 -56 l 21 71 l 117 475 l 610 258 l 760 343 l 735 528 l 160 675 l 174 1213 l 564 1417 l 1140 1332 l 1049 999 z "},"š":{"ha":1208,"x_min":21,"x_max":1188,"o":"m 318 1736 l 510 1736 l 626 1649 l 783 1736 l 975 1736 l 674 1451 l 563 1481 l 318 1736 m 1049 999 q 1017 1007 1043 1000 q 957 1023 992 1014 q 883 1043 922 1032 q 810 1063 843 1054 q 755 1078 776 1072 q 732 1083 733 1083 l 563 1083 l 518 875 l 1058 817 l 1188 343 l 1014 14 l 481 -56 l 21 71 l 117 475 l 610 258 l 760 343 l 735 528 l 160 675 l 174 1213 l 564 1417 l 1140 1332 l 1049 999 z "},"Ÿ":{"ha":1425,"x_min":14,"x_max":1411,"o":"m 672 1750 l 668 1485 l 361 1482 l 367 1747 l 672 1750 m 1051 1750 l 1047 1485 l 739 1482 l 744 1747 l 1051 1750 m 457 1383 l 731 697 l 942 1383 l 1411 1339 l 878 414 l 908 18 l 413 0 l 551 492 l 14 1242 l 457 1383 z "},"Ž":{"ha":1179,"x_min":21,"x_max":1151,"o":"m 297 1736 l 489 1736 l 606 1649 l 763 1736 l 954 1736 l 653 1451 l 542 1481 l 297 1736 m 1011 1122 l 494 325 l 1128 433 l 1151 3 l 21 42 l 574 1090 l 107 1056 l 51 1361 l 1013 1403 l 1013 1122 l 1011 1122 z "},"ž":{"ha":1179,"x_min":21,"x_max":1151,"o":"m 297 1736 l 489 1736 l 606 1649 l 763 1736 l 954 1736 l 653 1451 l 542 1481 l 297 1736 m 1011 1122 l 494 325 l 1128 433 l 1151 3 l 21 42 l 574 1090 l 107 1056 l 51 1361 l 1013 1403 l 1013 1122 l 1011 1122 z "},"ƒ":{"ha":1418,"x_min":26,"x_max":1399,"o":"m 588 796 q 613 1040 606 918 q 626 1286 621 1163 l 749 1446 l 1124 1486 l 1399 1285 l 1156 1113 l 1006 1254 l 944 1218 q 917 1020 932 1118 q 888 822 903 922 l 1268 856 l 1276 665 l 849 608 q 786 333 821 471 q 694 67 751 196 l 433 -99 l 26 97 l 222 296 l 382 172 q 421 237 401 204 q 458 303 440 269 q 480 355 468 319 q 503 431 492 390 q 526 508 515 471 q 542 567 536 546 l 411 550 l 357 776 l 588 796 z "},"ˆ":{"ha":713,"x_min":28,"x_max":685,"o":"m 383 1486 l 685 1201 l 493 1201 l 336 1289 l 219 1201 l 28 1201 l 272 1457 l 383 1486 z "},"ˇ":{"ha":713,"x_min":28,"x_max":685,"o":"m 28 1458 l 219 1458 l 336 1371 l 493 1458 l 685 1458 l 383 1174 l 272 1203 l 28 1458 z "},"˘":{"ha":713,"x_min":28,"x_max":685,"o":"m 144 1228 l 28 1389 l 219 1389 l 264 1331 q 278 1328 267 1331 q 301 1322 289 1325 q 324 1317 314 1319 q 336 1315 335 1315 q 376 1318 356 1315 q 417 1324 397 1321 l 493 1389 l 685 1389 l 547 1228 l 325 1176 l 144 1228 z "},"˙":{"ha":475,"x_min":28,"x_max":425,"o":"m 28 1657 l 364 1710 l 425 1399 l 89 1346 l 28 1657 z "},"˚":{"ha":417,"x_min":14,"x_max":403,"o":"m 403 1338 l 381 1201 l 264 1118 l 113 1128 l 14 1283 l 54 1417 l 174 1488 l 308 1467 l 403 1338 m 171 1225 l 260 1236 l 293 1313 l 251 1388 l 154 1363 l 138 1256 l 171 1225 z "},"˛":{"ha":394,"x_min":14,"x_max":367,"o":"m 71 -285 l 14 -122 l 186 75 l 285 75 q 228 -41 257 17 q 167 -156 199 -99 l 240 -194 l 342 -126 l 367 -164 l 261 -315 l 71 -285 z "},"˜":{"ha":754,"x_min":46,"x_max":715,"o":"m 46 965 l 140 1161 l 326 1182 l 504 1083 l 532 1178 l 715 1144 l 631 943 l 475 933 l 261 1039 l 242 933 l 46 965 z "},"˝":{"ha":742,"x_min":28,"x_max":714,"o":"m 517 1550 l 714 1507 l 472 1256 l 308 1256 l 517 1550 m 236 1550 l 433 1507 l 192 1256 l 28 1256 l 236 1550 z "},"μ":{"ha":1299,"x_min":42,"x_max":1257,"o":"m 1257 1389 l 1175 1 l 847 -37 l 826 71 l 740 -14 l 576 -14 l 440 83 l 418 -347 l 42 -403 l 90 126 q 97 197 93 165 q 105 258 101 228 q 111 319 108 288 q 114 390 114 351 q 113 473 114 436 q 112 545 113 510 q 110 617 111 581 q 107 700 108 654 l 94 1319 l 482 1394 l 478 449 l 578 347 l 799 332 l 864 414 l 850 1360 l 1257 1389 z "},"–":{"ha":819,"x_min":28,"x_max":792,"o":"m 792 811 l 778 607 l 28 593 l 28 825 l 792 811 z "},"—":{"ha":1361,"x_min":28,"x_max":1333,"o":"m 1333 811 l 1319 607 l 28 593 l 28 825 l 1333 811 z "},"‘":{"ha":424,"x_min":28,"x_max":396,"o":"m 396 874 l 28 885 l 46 1181 l 200 1508 l 328 1551 l 281 1200 l 396 1210 l 396 874 z "},"’":{"ha":424,"x_min":28,"x_max":396,"o":"m 28 1482 l 396 1471 l 378 1175 l 224 847 l 96 804 l 143 1156 l 28 1146 l 28 1482 z "},"‚":{"ha":449,"x_min":28,"x_max":421,"o":"m 56 386 l 421 344 l 379 51 l 197 -262 l 67 -294 l 143 51 l 28 51 l 56 386 z "},"“":{"ha":840,"x_min":28,"x_max":813,"o":"m 396 874 l 28 885 l 46 1181 l 200 1508 l 328 1551 l 281 1200 l 396 1210 l 396 874 m 813 874 l 444 885 l 463 1181 l 617 1508 l 744 1551 l 697 1200 l 813 1210 l 813 874 z "},"”":{"ha":868,"x_min":28,"x_max":840,"o":"m 28 1482 l 396 1471 l 378 1175 l 224 847 l 96 804 l 143 1156 l 28 1146 l 28 1482 m 472 1482 l 840 1471 l 822 1175 l 668 847 l 540 804 l 588 1156 l 472 1146 l 472 1482 z "},"„":{"ha":865,"x_min":28,"x_max":838,"o":"m 56 386 l 421 344 l 379 51 l 197 -262 l 67 -294 l 143 51 l 28 51 l 56 386 m 472 386 l 838 344 l 796 51 l 614 -262 l 483 -294 l 560 51 l 444 51 l 472 386 z "},"†":{"ha":917,"x_min":28,"x_max":889,"o":"m 269 847 l 28 843 l 28 1158 l 265 1147 l 260 1472 l 618 1472 l 613 1131 l 889 1117 l 889 857 l 608 853 l 590 -306 l 288 -306 l 269 847 z "},"‡":{"ha":917,"x_min":28,"x_max":889,"o":"m 281 122 l 28 135 l 28 394 l 276 399 l 269 847 l 28 843 l 28 1158 l 265 1147 l 260 1472 l 618 1472 l 613 1131 l 889 1117 l 889 857 l 608 853 l 601 404 l 889 408 l 889 93 l 597 107 l 590 -306 l 288 -306 l 281 122 z "},"•":{"ha":389,"x_min":28,"x_max":361,"o":"m 28 642 q 39 722 28 685 q 72 787 50 760 q 128 830 94 814 q 208 846 163 846 q 279 825 250 846 q 326 772 308 804 q 353 701 344 739 q 361 628 361 663 q 348 553 361 589 q 311 492 335 518 q 254 451 288 467 q 181 436 221 436 q 110 455 139 436 q 63 503 81 474 q 36 570 44 533 q 28 642 28 607 z "},"…":{"ha":1421,"x_min":28,"x_max":1393,"o":"m 501 332 l 856 390 l 919 50 l 565 -8 l 501 332 m 975 332 l 1329 390 l 1393 50 l 1039 -8 l 975 332 m 28 332 l 382 390 l 446 50 l 92 -8 l 28 332 z "},"‰":{"ha":2758,"x_min":28,"x_max":2731,"o":"m 1269 1499 l 1510 1417 l 542 -201 l 251 -108 l 1269 1499 m 842 1100 l 728 739 l 486 611 l 176 638 l 28 996 l 97 1332 l 424 1425 l 653 1368 l 842 1100 m 331 815 l 497 792 l 585 1024 l 579 1146 l 450 1285 l 279 1129 l 331 815 m 1869 447 l 1756 86 l 1514 -42 l 1204 -15 l 1056 343 l 1125 679 l 1451 772 l 1681 715 l 1869 447 m 2731 447 l 2617 86 l 2375 -42 l 2065 -15 l 1917 343 l 1986 679 l 2313 772 l 2542 715 l 2731 447 m 1358 163 l 1525 139 l 1613 371 l 1607 493 l 1478 632 l 1307 476 l 1358 163 m 2219 163 l 2386 139 l 2474 371 l 2468 493 l 2339 632 l 2168 476 l 2219 163 z "},"‹":{"ha":538,"x_min":28,"x_max":510,"o":"m 413 808 l 510 606 l 203 411 l 510 225 l 454 -6 l 28 300 l 28 517 l 413 808 z "},"›":{"ha":538,"x_min":28,"x_max":510,"o":"m 510 300 l 83 -6 l 28 225 l 335 411 l 28 606 l 125 808 l 510 517 l 510 300 z "},"⁄":{"ha":1314,"x_min":28,"x_max":1286,"o":"m 1046 1499 l 1286 1417 l 318 -201 l 28 -108 l 1046 1499 z "},"€":{"ha":1367,"x_min":26,"x_max":1339,"o":"m 936 1075 l 571 972 l 572 940 l 983 933 l 997 743 l 582 731 l 586 636 l 942 642 l 969 410 l 596 421 l 597 390 l 942 260 l 1201 508 l 1339 163 l 836 -62 l 257 232 l 253 431 l 26 438 l 40 628 l 247 631 l 246 721 l 82 715 l 110 947 l 240 946 l 236 1118 l 836 1389 l 1311 1332 l 1219 999 l 936 1075 z "},"™":{"ha":1360,"x_min":28,"x_max":1332,"o":"m 28 1403 l 510 1382 l 483 1232 l 353 1242 l 371 729 l 163 694 l 175 1254 l 28 1265 l 28 1403 m 592 1397 l 840 1369 l 915 901 l 1040 1396 l 1239 1344 l 1332 756 l 1097 715 l 1086 1157 l 983 746 l 832 715 l 747 1193 l 697 708 l 469 722 l 592 1397 z "},"−":{"ha":917,"x_min":28,"x_max":889,"o":"m 28 853 l 889 811 l 889 593 l 28 579 l 28 853 z "},"ﬁ":{"ha":1613,"x_min":21,"x_max":1578,"o":"m 46 368 q 38 421 42 397 q 30 467 33 444 q 24 514 26 490 q 21 567 21 538 q 26 640 21 607 q 40 703 32 672 q 56 767 47 735 q 74 839 65 800 l 181 1385 l 181 1389 l 1072 1374 l 1003 1013 l 563 1099 l 447 663 l 911 732 l 931 358 l 431 389 l 525 0 l 96 -28 l 46 368 m 1578 28 l 1135 -42 l 1165 1375 l 1532 1296 l 1578 28 z "},"ﬂ":{"ha":2018,"x_min":21,"x_max":1990,"o":"m 46 368 q 38 421 42 397 q 30 467 33 444 q 24 514 26 490 q 21 567 21 538 q 26 640 21 607 q 40 703 32 672 q 56 767 47 735 q 74 839 65 800 l 181 1385 l 181 1389 l 1072 1374 l 1003 1013 l 563 1099 l 447 663 l 911 732 l 931 358 l 431 389 l 525 0 l 96 -28 l 46 368 m 1547 1347 l 1510 308 l 1967 431 l 1990 0 l 1135 42 l 1149 1389 l 1547 1347 z "}}}
